<?xml version="1.0" encoding="utf-8"?>
<!DOCTYPE svg PUBLIC "-//W3C//DTD SVG 1.1//EN" "http://www.w3.org/Graphics/SVG/1.1/DTD/svg11.dtd">
<svg version="1.1" id="Camada_1" xmlns="http://www.w3.org/2000/svg" xmlns:xlink="http://www.w3.org/1999/xlink" x="0px" y="0px"
	 width="30px" height="30px" viewBox="0 0 30 30" enable-background="new 0 0 30 30" xml:space="preserve">
<g>
	
		<linearGradient id="SVGID_1_" gradientUnits="userSpaceOnUse" x1="598.9297" y1="839.2786" x2="581.4316" y2="812.1289" gradientTransform="matrix(1 0 0 1 -575.32 -810.92)">
		<stop  offset="0" style="stop-color:#FFC486"/>
		<stop  offset="1" style="stop-color:#FF0000"/>
	</linearGradient>
	<polygon fill="url(#SVGID_1_)" points="0.902,14.894 14.893,0.901 29.098,15.106 15.107,29.099 	"/>
	<path fill="#170000" d="M14.893,1.803l13.304,13.304l-13.09,13.091L1.803,14.894L14.893,1.803 M14.893,0L0,14.894L15.107,30
		L30,15.106L14.893,0L14.893,0z"/>
</g>
<g>
	<path fill="#170000" d="M8.213,16.706v-1.184h3.981v1.184H8.213z"/>
	<path fill="#170000" d="M20.087,18.451v1.132h-6.988c-0.018-0.458,0.168-0.971,0.558-1.538c0.39-0.567,1.102-1.235,2.141-2.009
		c1.214-0.898,2.007-1.594,2.382-2.085c0.375-0.491,0.563-0.949,0.563-1.371c0-0.489-0.192-0.887-0.576-1.194
		c-0.384-0.308-0.856-0.462-1.419-0.462c-0.603,0-1.098,0.166-1.485,0.499s-0.58,0.809-0.58,1.431l-1.338-0.124
		c0.094-0.92,0.444-1.611,1.05-2.076s1.406-0.696,2.396-0.696c1.078,0,1.895,0.27,2.448,0.81c0.554,0.54,0.831,1.155,0.831,1.842
		c0,0.61-0.218,1.195-0.651,1.755c-0.433,0.559-1.257,1.307-2.469,2.241c-0.774,0.588-1.273,0.99-1.498,1.203
		c-0.225,0.213-0.408,0.429-0.549,0.642H20.087z"/>
</g>
</svg>
