<?xml version="1.0" encoding="utf-8"?>
<!DOCTYPE svg PUBLIC "-//W3C//DTD SVG 1.1//EN" "http://www.w3.org/Graphics/SVG/1.1/DTD/svg11.dtd">
<svg version="1.1" id="Camada_1" xmlns="http://www.w3.org/2000/svg" xmlns:xlink="http://www.w3.org/1999/xlink" x="0px" y="0px"
	 width="30px" height="30px" viewBox="0 0 30 30" enable-background="new 0 0 30 30" xml:space="preserve">
<g>
	<g>
		
			<linearGradient id="SVGID_1_" gradientUnits="userSpaceOnUse" x1="1749.5697" y1="2461.1187" x2="1732.0717" y2="2433.9688" gradientTransform="matrix(1 0 0 1 -1725.9601 -2432.76)">
			<stop  offset="0" style="stop-color:#C9FF7D"/>
			<stop  offset="1" style="stop-color:#00A0A0"/>
		</linearGradient>
		<polygon fill="url(#SVGID_1_)" points="0.902,14.894 14.893,0.901 29.098,15.106 15.107,29.099 		"/>
		<path fill="#002328" d="M14.893,1.803l13.304,13.304l-13.09,13.091L1.803,14.894L14.893,1.803 M14.893,0L0,14.894L15.107,30
			L30,15.106L14.893,0L14.893,0z"/>
	</g>
	<g>
		<path fill="#002328" d="M10.334,18.245v-2.799H7.46v-1.169h2.874v-2.778h1.23v2.778h2.874v1.169h-2.874v2.799H10.334z"/>
		<path fill="#002328" d="M21.141,18.69v1.205h-6.986c-0.018-0.487,0.168-1.034,0.558-1.638c0.39-0.604,1.102-1.316,2.141-2.139
			c1.214-0.957,2.007-1.697,2.382-2.22c0.375-0.523,0.563-1.01,0.563-1.461c0-0.521-0.193-0.945-0.577-1.272
			c-0.384-0.328-0.855-0.492-1.417-0.492c-0.603,0-1.098,0.177-1.485,0.531c-0.387,0.354-0.58,0.862-0.58,1.524l-1.337-0.132
			c0.094-0.979,0.444-1.716,1.05-2.21c0.606-0.494,1.406-0.742,2.396-0.742c1.078,0,1.893,0.288,2.447,0.863s0.832,1.23,0.832,1.962
			c0,0.65-0.217,1.273-0.651,1.869c-0.433,0.595-1.257,1.392-2.469,2.386c-0.774,0.626-1.275,1.054-1.5,1.281
			s-0.408,0.456-0.549,0.683H21.141z"/>
	</g>
</g>
</svg>
